<?xml version="1.0" encoding="UTF-8" standalone="no"?>
<svg
   viewBox="0 0 16 16"
   version="1.1"
   id="svg167"
   sodipodi:docname="pop-shell-auto-on-symbolic.svg"
   inkscape:version="1.1.2 (0a00cf5339, 2022-02-04)"
   xmlns:inkscape="http://www.inkscape.org/namespaces/inkscape"
   xmlns:sodipodi="http://sodipodi.sourceforge.net/DTD/sodipodi-0.dtd"
   xmlns="http://www.w3.org/2000/svg"
   xmlns:svg="http://www.w3.org/2000/svg">
  <defs
     id="defs171" />
  <sodipodi:namedview
     id="namedview169"
     pagecolor="#ffffff"
     bordercolor="#666666"
     borderopacity="1.0"
     inkscape:pageshadow="2"
     inkscape:pageopacity="0.0"
     inkscape:pagecheckerboard="0"
     showgrid="false"
     inkscape:zoom="44.503533"
     inkscape:cx="6.8870937"
     inkscape:cy="7.314026"
     inkscape:window-width="1908"
     inkscape:window-height="1054"
     inkscape:window-x="3844"
     inkscape:window-y="35"
     inkscape:window-maximized="0"
     inkscape:current-layer="svg167" />
  <rect
     height="11"
     id="rect3158"
     ry="0.80000007"
     style="fill:#808080;fill-opacity:1;stroke:none;stroke-width:109.262;stroke-miterlimit:4;stroke-dasharray:none;stroke-opacity:1"
     width="6.5"
     x="1"
     y="2" />
  <path
     id="rect26"
     style="fill:#808080;fill-opacity:1;stroke-width:109.319"
     d="M 9.2739992,2.0000001 H 14.226002 C 14.654786,2.0000001 15,2.3571697 15,2.8008285 v 3.3983437 c 0,0.4436592 -0.345214,0.8008279 -0.773998,0.8008279 H 9.2739992 C 8.8452148,7.0000001 8.5,6.6428314 8.5,6.1991722 V 2.8008285 C 8.5,2.3571697 8.8452148,2.0000001 9.2739992,2.0000001 Z"
     sodipodi:nodetypes="sssssssss" />
  <path
     id="path608"
     style="fill:#808080;fill-opacity:1;stroke-width:109.319"
     d="M 9.2739992,8 H 14.226002 C 14.654786,8 15,8.3571693 15,8.8008285 V 12.199172 C 15,12.642832 14.654786,13 14.226002,13 H 9.2739992 C 8.8452148,13 8.5,12.642832 8.5,12.199172 V 8.8008285 C 8.5,8.3571693 8.8452148,8 9.2739992,8 Z"
     sodipodi:nodetypes="sssssssss" />
</svg>
